<?xml version="1.0" encoding="UTF-8" standalone="no"?>
<!-- Created with Inkscape (http://www.inkscape.org/) -->

<svg
   width="45"
   height="60"
   viewBox="0 0 45 60"
   version="1.1"
   id="svg1"
   xml:space="preserve"
   sodipodi:docname="kv-icon.svg"
   inkscape:version="1.3.2 (091e20e, 2023-11-25)"
   xmlns:inkscape="http://www.inkscape.org/namespaces/inkscape"
   xmlns:sodipodi="http://sodipodi.sourceforge.net/DTD/sodipodi-0.dtd"
   xmlns="http://www.w3.org/2000/svg"
   xmlns:svg="http://www.w3.org/2000/svg"><sodipodi:namedview
     id="namedview1"
     pagecolor="#505050"
     bordercolor="#eeeeee"
     borderopacity="1"
     inkscape:showpageshadow="0"
     inkscape:pageopacity="0"
     inkscape:pagecheckerboard="0"
     inkscape:deskcolor="#505050"
     inkscape:zoom="2.6647059"
     inkscape:cx="85"
     inkscape:cy="30.022075"
     inkscape:window-width="2544"
     inkscape:window-height="1357"
     inkscape:window-x="1527"
     inkscape:window-y="40"
     inkscape:window-maximized="0"
     inkscape:current-layer="svg1" /><defs
     id="defs1" /><g
     style="fill:none"
     id="g2"
     transform="matrix(0.61607969,0,0,0.61607969,-14.768103,10.823222)"><path
       d="m 77.3344,2.09961 h -34.5 c -1.7,0 -3.1,1.4 -3.1,3.1 V 26.3996 c 2.7,-2.1 6.1,-4.9 12.2,-3.4 5.3,1.3 6.4,5.4 14.8,10 5.1,2.8 9.9,0.6 13.8,-1.6 V 5.29961 c 0,-1.8 -1.4,-3.2 -3.2,-3.2 z"
       fill="#1a833b"
       id="path1" /><path
       d="m 69.4344,42.4004 c -1.7,-0.2 -3.1,-0.8 -4.4,-1.7 -2.9,-1.8 -5.7,-4.7 -11.7,-7.8 -4.7,-2.3 -9.4,-0.5 -13.6,1.9 v 23.7 c 0,1.7 1.4,3.1 3.1,3.1 h 34.5 c 1.7,0 3.1,-1.4 3.1,-3.1 v -19.3 c -3.6,2.1 -7.1,3.8 -11,3.2 z"
       fill="#1a589f"
       id="path2" /><path
       d="m 66.7344,32.9999 c -8.3,-4.6 -9.5,-8.7 -14.8,-10 -6.1,-1.5 -9.5,1.4 -12.2,3.4 v 4.3 4.1 c 4.2,-2.4 8.9,-4.3 13.6,-1.9 6,3.1 8.8,6 11.7,7.8 1.3,0.8 2.7,1.4 4.4,1.7 3.9,0.6 7.4,-1.1 11.1,-3.2 v -3.8 -4.1 c -3.9,2.3 -8.7,4.5 -13.8,1.7 z"
       fill="#ffffff"
       id="path3" /></g></svg>
