<svg width="591" height="394" viewBox="0 0 591 394" fill="none" xmlns="http://www.w3.org/2000/svg">
<g clip-path="url(#clip0_2866_48836)">
<rect width="591" height="394" rx="8" fill="#FFFDDF"/>
<g opacity="0.8" filter="url(#filter0_f_2866_48836)">
<ellipse cx="543.17" cy="280.682" rx="391.12" ry="260.323" transform="rotate(-15 543.17 280.682)" fill="url(#paint0_linear_2866_48836)"/>
</g>
<path d="M420.127 346L454.152 346C458.85 346 462.658 342.192 462.658 337.494L462.658 207.772" stroke="#C89D5D" stroke-width="2.12659" stroke-linejoin="round"/>
<line y1="-1.0633" x2="4.25318" y2="-1.0633" transform="matrix(-3.85279e-07 -1 -1 1.31134e-07 461.595 209.898)" stroke="#C89D5D" stroke-width="2.12659"/>
<line y1="-1.0633" x2="4.25318" y2="-1.0633" transform="matrix(-1 8.74228e-08 3.41568e-07 1 422.253 347.063)" stroke="#C89D5D" stroke-width="2.12659"/>
<line y1="-1.0633" x2="23.3925" y2="-1.0633" transform="matrix(-4.37114e-08 -1 -1 2.97856e-07 350.557 231.873)" stroke="#C89D5D" stroke-width="2.12659"/>
<line y1="-1.0633" x2="4.25318" y2="-1.0633" transform="matrix(1.31134e-07 1 1 -3.85279e-07 352.683 229.747)" stroke="#C89D5D" stroke-width="2.12659"/>
<line y1="-1.0633" x2="4.25318" y2="-1.0633" transform="matrix(-1.31134e-07 -1 -1 3.85279e-07 350.557 210.607)" stroke="#C89D5D" stroke-width="2.12659"/>
<line y1="-1.0633" x2="23.3925" y2="-1.0633" transform="matrix(-4.37114e-08 -1 -1 2.97856e-07 237.557 231.873)" stroke="#C89D5D" stroke-width="2.12659"/>
<line y1="-1.0633" x2="4.25318" y2="-1.0633" transform="matrix(1.31134e-07 1 1 -3.85279e-07 239.683 229.747)" stroke="#C89D5D" stroke-width="2.12659"/>
<line y1="-1.0633" x2="4.25318" y2="-1.0633" transform="matrix(-1.31134e-07 -1 -1 3.85279e-07 237.557 210.607)" stroke="#C89D5D" stroke-width="2.12659"/>
<path d="M168.873 346L134.848 346C130.15 346 126.342 342.192 126.342 337.494L126.342 207.772" stroke="#C89D5D" stroke-width="2.12659" stroke-linejoin="round"/>
<line x1="126.341" y1="209.898" x2="126.341" y2="205.645" stroke="#C89D5D" stroke-width="2.12659"/>
<line x1="166.747" y1="346" x2="171" y2="346" stroke="#C89D5D" stroke-width="2.12659"/>
<rect x="125" y="205" width="3" height="13" fill="url(#paint1_linear_2866_48836)"/>
<rect x="237" y="205" width="3" height="13" fill="url(#paint2_linear_2866_48836)"/>
<rect x="350" y="205" width="3" height="13" fill="url(#paint3_linear_2866_48836)"/>
<rect x="461" y="205" width="3" height="13" fill="url(#paint4_linear_2866_48836)"/>
<rect x="87" y="96" width="80" height="80" rx="8" fill="url(#paint5_linear_2866_48836)"/>
<path fill-rule="evenodd" clip-rule="evenodd" d="M128.407 122.879C127.519 122.446 126.481 122.446 125.593 122.879L115.313 127.894C114.612 128.236 114.167 128.948 114.167 129.729V141.282C114.167 142.486 114.841 143.588 115.912 144.137L125.537 149.067C126.456 149.538 127.544 149.538 128.463 149.067L138.088 144.137C139.159 143.588 139.833 142.486 139.833 141.282V129.729C139.833 128.948 139.388 128.236 138.687 127.894L128.407 122.879ZM126.361 124.452C126.764 124.255 127.236 124.255 127.639 124.452L137.1 129.067L127 133.865L116.9 129.067L126.361 124.452ZM115.917 130.537V141.282C115.917 141.829 116.223 142.33 116.71 142.58L126.125 147.402V135.386L115.917 130.537ZM127.875 147.402L137.29 142.58C137.777 142.33 138.083 141.829 138.083 141.282V130.537L127.875 135.386V147.402Z" fill="#FFEC6E"/>
<path fill-rule="evenodd" clip-rule="evenodd" d="M106 164.678C106 163.279 107.157 162.145 108.584 162.145H145.416C146.101 162.145 146.759 162.412 147.243 162.887C147.728 163.362 148 164.006 148 164.678V187.467C148 188.866 146.843 190 145.416 190H108.584C107.157 190 106 188.866 106 187.467V164.678Z" fill="white" stroke="black" stroke-width="1.14072" stroke-miterlimit="10" stroke-linejoin="round"/>
<path fill-rule="evenodd" clip-rule="evenodd" d="M120.855 159.537L126.309 156L131.738 159.537V165.196H120.829L120.855 159.537Z" fill="white" stroke="black" stroke-width="1.14072" stroke-miterlimit="10" stroke-linejoin="round"/>
<path fill-rule="evenodd" clip-rule="evenodd" d="M123.902 171.228C125.188 170.609 126.693 170.401 128.199 170.736C131.692 171.515 133.881 174.922 133.086 178.346C133.008 178.685 132.664 178.897 132.318 178.82C131.973 178.743 131.756 178.406 131.835 178.067C132.472 175.321 130.717 172.587 127.914 171.963C126.705 171.693 125.5 171.86 124.468 172.357C124.15 172.51 123.766 172.382 123.609 172.07C123.453 171.758 123.584 171.381 123.902 171.228ZM122.493 172.969C122.775 173.179 122.83 173.574 122.615 173.85C122.18 174.412 121.856 175.071 121.686 175.806C121.463 176.766 121.235 177.556 120.992 178.238C120.875 178.566 120.508 178.738 120.174 178.624C119.84 178.509 119.663 178.15 119.78 177.822C120.004 177.195 120.22 176.452 120.434 175.527C120.646 174.614 121.049 173.79 121.594 173.089C121.808 172.812 122.211 172.759 122.493 172.969ZM122.715 176.035C123.223 173.845 125.446 172.473 127.68 172.971C129.019 173.269 130.057 174.171 130.566 175.315C130.707 175.633 130.558 176.004 130.234 176.143C129.909 176.281 129.531 176.136 129.389 175.817C129.037 175.025 128.319 174.403 127.396 174.198C125.852 173.854 124.317 174.801 123.966 176.314C123.817 176.956 123.663 177.538 123.501 178.074C123.4 178.407 123.043 178.597 122.704 178.498C122.364 178.399 122.17 178.049 122.271 177.716C122.424 177.211 122.571 176.655 122.715 176.035ZM125.75 175.463C126.149 175.201 126.655 175.093 127.162 175.206C128.137 175.423 128.748 176.374 128.526 177.33C128.345 178.112 128.151 178.838 127.94 179.522C127.838 179.854 127.48 180.042 127.141 179.942C126.801 179.841 126.61 179.49 126.712 179.157C126.913 178.507 127.099 177.809 127.275 177.051C127.339 176.773 127.161 176.496 126.877 176.432C126.73 176.399 126.583 176.43 126.466 176.507C126.172 176.701 125.773 176.624 125.576 176.336C125.378 176.048 125.456 175.657 125.75 175.463ZM130.323 177.085C130.668 177.162 130.885 177.499 130.806 177.838C130.319 179.939 129.738 181.718 128.943 183.38C128.793 183.694 128.411 183.83 128.09 183.682C127.769 183.535 127.631 183.161 127.781 182.846C128.527 181.286 129.082 179.598 129.555 177.559C129.633 177.221 129.977 177.008 130.323 177.085ZM125.389 177.65C125.73 177.745 125.928 178.092 125.831 178.427C125.377 179.998 124.851 181.264 124.18 182.447C124.132 182.533 124.082 182.619 124.032 182.704C123.854 183.005 123.462 183.108 123.155 182.934C122.848 182.76 122.743 182.375 122.921 182.074C122.967 181.995 123.013 181.916 123.059 181.836C123.674 180.749 124.166 179.575 124.596 178.084C124.693 177.75 125.048 177.555 125.389 177.65ZM122.405 179.325C122.73 179.465 122.877 179.836 122.734 180.154C122.547 180.571 122.349 180.96 122.136 181.334C121.964 181.638 121.574 181.747 121.264 181.578C120.954 181.41 120.842 181.027 121.014 180.723C121.208 180.382 121.389 180.027 121.559 179.647C121.702 179.329 122.081 179.185 122.405 179.325ZM132.125 179.573C132.466 179.668 132.663 180.016 132.566 180.35C132.351 181.091 132.116 181.802 131.854 182.493C131.73 182.819 131.361 182.985 131.029 182.864C130.697 182.743 130.527 182.381 130.651 182.056C130.9 181.398 131.125 180.718 131.332 180.006C131.429 179.672 131.784 179.478 132.125 179.573ZM126.811 180.856C127.138 180.99 127.292 181.359 127.155 181.679C126.92 182.228 126.665 182.755 126.386 183.268C126.333 183.366 126.279 183.463 126.225 183.56C126.052 183.863 125.662 183.973 125.352 183.804C125.042 183.635 124.931 183.253 125.103 182.949C125.154 182.859 125.204 182.768 125.254 182.677C125.514 182.198 125.752 181.707 125.971 181.193C126.108 180.873 126.484 180.722 126.811 180.856Z" fill="#000001"/>
<rect x="199" y="96" width="80" height="80" rx="8" fill="url(#paint6_linear_2866_48836)"/>
<path fill-rule="evenodd" clip-rule="evenodd" d="M233.75 133.573C235.585 133.172 236.958 131.538 236.958 129.583C236.958 127.328 235.13 125.5 232.875 125.5C230.62 125.5 228.792 127.328 228.792 129.583C228.792 131.538 230.165 133.172 232 133.573V146.208C232 146.692 232.392 147.083 232.875 147.083C233.358 147.083 233.75 146.692 233.75 146.208V133.573ZM230.542 129.583C230.542 128.295 231.586 127.25 232.875 127.25C234.164 127.25 235.208 128.295 235.208 129.583C235.208 130.872 234.164 131.917 232.875 131.917C231.586 131.917 230.542 130.872 230.542 129.583Z" fill="#FFEC6E"/>
<path fill-rule="evenodd" clip-rule="evenodd" d="M246 132.208V138.719C247.835 139.12 249.208 140.754 249.208 142.708C249.208 144.963 247.38 146.792 245.125 146.792C242.87 146.792 241.042 144.963 241.042 142.708C241.042 140.754 242.415 139.12 244.25 138.719V132.208C244.25 131.403 243.597 130.75 242.792 130.75H240.167C239.684 130.75 239.292 130.358 239.292 129.875C239.292 129.392 239.684 129 240.167 129H242.792C244.564 129 246 130.436 246 132.208ZM242.792 142.708C242.792 141.42 243.836 140.375 245.125 140.375C246.414 140.375 247.458 141.42 247.458 142.708C247.458 143.997 246.414 145.042 245.125 145.042C243.836 145.042 242.792 143.997 242.792 142.708Z" fill="#FFEC6E"/>
<path fill-rule="evenodd" clip-rule="evenodd" d="M218 164.678C218 163.279 219.157 162.145 220.584 162.145H257.416C258.101 162.145 258.759 162.412 259.243 162.887C259.728 163.362 260 164.006 260 164.678V187.467C260 188.866 258.843 190 257.416 190H220.584C219.157 190 218 188.866 218 187.467V164.678Z" fill="white" stroke="black" stroke-width="1.14072" stroke-miterlimit="10" stroke-linejoin="round"/>
<path fill-rule="evenodd" clip-rule="evenodd" d="M232.855 159.537L238.309 156L243.738 159.537V165.196H232.829L232.855 159.537Z" fill="white" stroke="black" stroke-width="1.14072" stroke-miterlimit="10" stroke-linejoin="round"/>
<path fill-rule="evenodd" clip-rule="evenodd" d="M235.902 171.228C237.188 170.609 238.693 170.401 240.199 170.736C243.692 171.515 245.881 174.922 245.086 178.346C245.008 178.685 244.664 178.897 244.318 178.82C243.973 178.743 243.756 178.406 243.835 178.067C244.472 175.321 242.717 172.587 239.914 171.963C238.705 171.693 237.5 171.86 236.468 172.357C236.15 172.51 235.766 172.382 235.609 172.07C235.453 171.758 235.584 171.381 235.902 171.228ZM234.493 172.969C234.775 173.179 234.83 173.574 234.615 173.85C234.18 174.412 233.856 175.071 233.686 175.806C233.463 176.766 233.235 177.556 232.992 178.238C232.875 178.566 232.508 178.738 232.174 178.624C231.84 178.509 231.663 178.15 231.78 177.822C232.004 177.195 232.22 176.452 232.434 175.527C232.646 174.614 233.049 173.79 233.594 173.089C233.808 172.812 234.211 172.759 234.493 172.969ZM234.715 176.035C235.223 173.845 237.446 172.473 239.68 172.971C241.019 173.269 242.057 174.171 242.566 175.315C242.707 175.633 242.558 176.004 242.234 176.143C241.909 176.281 241.531 176.136 241.389 175.817C241.037 175.025 240.319 174.403 239.396 174.198C237.852 173.854 236.317 174.801 235.966 176.314C235.817 176.956 235.663 177.538 235.501 178.074C235.4 178.407 235.043 178.597 234.704 178.498C234.364 178.399 234.17 178.049 234.271 177.716C234.424 177.211 234.571 176.655 234.715 176.035ZM237.75 175.463C238.149 175.201 238.655 175.093 239.162 175.206C240.137 175.423 240.748 176.374 240.526 177.33C240.345 178.112 240.151 178.838 239.94 179.522C239.838 179.854 239.48 180.042 239.141 179.942C238.801 179.841 238.61 179.49 238.712 179.157C238.913 178.507 239.099 177.809 239.275 177.051C239.339 176.773 239.161 176.496 238.877 176.432C238.73 176.399 238.583 176.43 238.466 176.507C238.172 176.701 237.773 176.624 237.576 176.336C237.378 176.048 237.456 175.657 237.75 175.463ZM242.323 177.085C242.668 177.162 242.885 177.499 242.806 177.838C242.319 179.939 241.738 181.718 240.943 183.38C240.793 183.694 240.411 183.83 240.09 183.682C239.769 183.535 239.631 183.161 239.781 182.846C240.527 181.286 241.082 179.598 241.555 177.559C241.633 177.221 241.977 177.008 242.323 177.085ZM237.389 177.65C237.73 177.745 237.928 178.092 237.831 178.427C237.377 179.998 236.851 181.264 236.18 182.447C236.132 182.533 236.082 182.619 236.032 182.704C235.854 183.005 235.462 183.108 235.155 182.934C234.848 182.76 234.743 182.375 234.921 182.074C234.967 181.995 235.013 181.916 235.059 181.836C235.674 180.749 236.166 179.575 236.596 178.084C236.693 177.75 237.048 177.555 237.389 177.65ZM234.405 179.325C234.73 179.465 234.877 179.836 234.734 180.154C234.547 180.571 234.349 180.96 234.136 181.334C233.964 181.638 233.574 181.747 233.264 181.578C232.954 181.41 232.842 181.027 233.014 180.723C233.208 180.382 233.389 180.027 233.559 179.647C233.702 179.329 234.081 179.185 234.405 179.325ZM244.125 179.573C244.466 179.668 244.663 180.016 244.566 180.35C244.351 181.091 244.116 181.802 243.854 182.493C243.73 182.819 243.361 182.985 243.029 182.864C242.697 182.743 242.527 182.381 242.651 182.056C242.9 181.398 243.125 180.718 243.332 180.006C243.429 179.672 243.784 179.478 244.125 179.573ZM238.811 180.856C239.138 180.99 239.292 181.359 239.155 181.679C238.92 182.228 238.665 182.755 238.386 183.268C238.333 183.366 238.279 183.463 238.225 183.56C238.052 183.863 237.662 183.973 237.352 183.804C237.042 183.635 236.931 183.253 237.103 182.949C237.154 182.859 237.204 182.768 237.254 182.677C237.514 182.198 237.752 181.707 237.971 181.193C238.108 180.873 238.484 180.722 238.811 180.856Z" fill="#000001"/>
<rect x="311" y="96" width="80" height="80" rx="8" fill="url(#paint7_linear_2866_48836)"/>
<path fill-rule="evenodd" clip-rule="evenodd" d="M347.5 125.5C344.278 125.5 341.667 128.112 341.667 131.333C341.667 134.555 344.278 137.167 347.5 137.167C350.722 137.167 353.333 134.555 353.333 131.333C353.333 128.112 350.722 125.5 347.5 125.5ZM343.417 131.333C343.417 129.078 345.245 127.25 347.5 127.25C349.755 127.25 351.583 129.078 351.583 131.333C351.583 133.588 349.755 135.417 347.5 135.417C345.245 135.417 343.417 133.588 343.417 131.333Z" fill="#FFEC6E"/>
<path d="M342.542 138.917C339.481 138.917 337 141.398 337 144.458V145.625C337 146.108 337.392 146.5 337.875 146.5C338.358 146.5 338.75 146.108 338.75 145.625V144.458C338.75 142.364 340.448 140.667 342.542 140.667H352.458C354.552 140.667 356.25 142.364 356.25 144.458V145.625C356.25 146.108 356.642 146.5 357.125 146.5C357.608 146.5 358 146.108 358 145.625V144.458C358 141.398 355.519 138.917 352.458 138.917H342.542Z" fill="#FFEC6E"/>
<path d="M358.292 139.792C358.292 139.308 358.683 138.917 359.167 138.917H359.458C362.519 138.917 365 141.398 365 144.458V145.625C365 146.108 364.608 146.5 364.125 146.5C363.642 146.5 363.25 146.108 363.25 145.625V144.458C363.25 142.364 361.552 140.667 359.458 140.667H359.167C358.683 140.667 358.292 140.275 358.292 139.792Z" fill="#FFEC6E"/>
<path d="M354.5 125.5C354.017 125.5 353.625 125.892 353.625 126.375C353.625 126.858 354.017 127.25 354.5 127.25C356.755 127.25 358.583 129.078 358.583 131.333C358.583 133.588 356.755 135.417 354.5 135.417C354.017 135.417 353.625 135.808 353.625 136.292C353.625 136.775 354.017 137.167 354.5 137.167C357.722 137.167 360.333 134.555 360.333 131.333C360.333 128.112 357.722 125.5 354.5 125.5Z" fill="#FFEC6E"/>
<path fill-rule="evenodd" clip-rule="evenodd" d="M330 164.678C330 163.279 331.157 162.145 332.584 162.145H369.416C370.101 162.145 370.759 162.412 371.243 162.887C371.728 163.362 372 164.006 372 164.678V187.467C372 188.866 370.843 190 369.416 190H332.584C331.157 190 330 188.866 330 187.467V164.678Z" fill="white" stroke="black" stroke-width="1.14072" stroke-miterlimit="10" stroke-linejoin="round"/>
<path fill-rule="evenodd" clip-rule="evenodd" d="M344.855 159.537L350.309 156L355.738 159.537V165.196H344.829L344.855 159.537Z" fill="white" stroke="black" stroke-width="1.14072" stroke-miterlimit="10" stroke-linejoin="round"/>
<path fill-rule="evenodd" clip-rule="evenodd" d="M347.902 171.228C349.188 170.609 350.693 170.401 352.199 170.736C355.692 171.515 357.881 174.922 357.086 178.346C357.008 178.685 356.664 178.897 356.318 178.82C355.973 178.743 355.756 178.406 355.835 178.067C356.472 175.321 354.717 172.587 351.914 171.963C350.705 171.693 349.5 171.86 348.468 172.357C348.15 172.51 347.766 172.382 347.609 172.07C347.453 171.758 347.584 171.381 347.902 171.228ZM346.493 172.969C346.775 173.179 346.83 173.574 346.615 173.85C346.18 174.412 345.856 175.071 345.686 175.806C345.463 176.766 345.235 177.556 344.992 178.238C344.875 178.566 344.508 178.738 344.174 178.624C343.84 178.509 343.663 178.15 343.78 177.822C344.004 177.195 344.22 176.452 344.434 175.527C344.646 174.614 345.049 173.79 345.594 173.089C345.808 172.812 346.211 172.759 346.493 172.969ZM346.715 176.035C347.223 173.845 349.446 172.473 351.68 172.971C353.019 173.269 354.057 174.171 354.566 175.315C354.707 175.633 354.558 176.004 354.234 176.143C353.909 176.281 353.531 176.136 353.389 175.817C353.037 175.025 352.319 174.403 351.396 174.198C349.852 173.854 348.317 174.801 347.966 176.314C347.817 176.956 347.663 177.538 347.501 178.074C347.4 178.407 347.043 178.597 346.704 178.498C346.364 178.399 346.17 178.049 346.271 177.716C346.424 177.211 346.571 176.655 346.715 176.035ZM349.75 175.463C350.149 175.201 350.655 175.093 351.162 175.206C352.137 175.423 352.748 176.374 352.526 177.33C352.345 178.112 352.151 178.838 351.94 179.522C351.838 179.854 351.48 180.042 351.141 179.942C350.801 179.841 350.61 179.49 350.712 179.157C350.913 178.507 351.099 177.809 351.275 177.051C351.339 176.773 351.161 176.496 350.877 176.432C350.73 176.399 350.583 176.43 350.466 176.507C350.172 176.701 349.773 176.624 349.576 176.336C349.378 176.048 349.456 175.657 349.75 175.463ZM354.323 177.085C354.668 177.162 354.885 177.499 354.806 177.838C354.319 179.939 353.738 181.718 352.943 183.38C352.793 183.694 352.411 183.83 352.09 183.682C351.769 183.535 351.631 183.161 351.781 182.846C352.527 181.286 353.082 179.598 353.555 177.559C353.633 177.221 353.977 177.008 354.323 177.085ZM349.389 177.65C349.73 177.745 349.928 178.092 349.831 178.427C349.377 179.998 348.851 181.264 348.18 182.447C348.132 182.533 348.082 182.619 348.032 182.704C347.854 183.005 347.462 183.108 347.155 182.934C346.848 182.76 346.743 182.375 346.921 182.074C346.967 181.995 347.013 181.916 347.059 181.836C347.674 180.749 348.166 179.575 348.596 178.084C348.693 177.75 349.048 177.555 349.389 177.65ZM346.405 179.325C346.73 179.465 346.877 179.836 346.734 180.154C346.547 180.571 346.349 180.96 346.136 181.334C345.964 181.638 345.574 181.747 345.264 181.578C344.954 181.41 344.842 181.027 345.014 180.723C345.208 180.382 345.389 180.027 345.559 179.647C345.702 179.329 346.081 179.185 346.405 179.325ZM356.125 179.573C356.466 179.668 356.663 180.016 356.566 180.35C356.351 181.091 356.116 181.802 355.854 182.493C355.73 182.819 355.361 182.985 355.029 182.864C354.697 182.743 354.527 182.381 354.651 182.056C354.9 181.398 355.125 180.718 355.332 180.006C355.429 179.672 355.784 179.478 356.125 179.573ZM350.811 180.856C351.138 180.99 351.292 181.359 351.155 181.679C350.92 182.228 350.665 182.755 350.386 183.268C350.333 183.366 350.279 183.463 350.225 183.56C350.052 183.863 349.662 183.973 349.352 183.804C349.042 183.635 348.931 183.253 349.103 182.949C349.154 182.859 349.204 182.768 349.254 182.677C349.514 182.198 349.752 181.707 349.971 181.193C350.108 180.873 350.484 180.722 350.811 180.856Z" fill="#000001"/>
<rect x="423" y="96" width="80" height="80" rx="8" fill="url(#paint8_linear_2866_48836)"/>
<path fill-rule="evenodd" clip-rule="evenodd" d="M455.808 126.15C457.634 125.471 459.613 125.32 461.52 125.716C463.43 126.112 465.19 127.041 466.602 128.396C467.849 129.592 468.779 131.078 469.314 132.719H470.161C471.977 132.719 473.717 133.447 474.999 134.74C476.281 136.032 477 137.784 477 139.609C477 141.434 476.281 143.186 474.999 144.479C473.717 145.772 471.977 146.5 470.161 146.5H459.425C459.422 146.5 459.42 146.5 459.417 146.5C457.47 146.5 455.562 145.949 453.909 144.912C452.255 143.873 450.923 142.388 450.065 140.625C449.207 138.863 448.857 136.893 449.053 134.941C449.25 132.988 449.985 131.129 451.177 129.576C452.369 128.023 453.97 126.837 455.799 126.154C455.802 126.153 455.805 126.152 455.808 126.15ZM456.402 127.797C454.886 128.364 453.557 129.35 452.566 130.641C451.572 131.936 450.958 133.486 450.794 135.116C450.63 136.746 450.923 138.389 451.639 139.859C452.354 141.329 453.464 142.566 454.84 143.43C456.216 144.294 457.804 144.751 459.424 144.75C459.427 144.75 459.43 144.75 459.433 144.75H470.161C471.508 144.75 472.802 144.21 473.757 143.247C474.712 142.284 475.25 140.975 475.25 139.609C475.25 138.244 474.712 136.935 473.757 135.972C472.802 135.009 471.508 134.469 470.161 134.469H468.658C468.258 134.469 467.909 134.198 467.81 133.811C467.404 132.225 466.565 130.786 465.39 129.658C464.215 128.531 462.751 127.759 461.164 127.429C459.577 127.1 457.931 127.226 456.411 127.793C456.408 127.794 456.405 127.796 456.402 127.797Z" fill="#FFEC6E"/>
<path fill-rule="evenodd" clip-rule="evenodd" d="M442 164.678C442 163.279 443.157 162.145 444.584 162.145H481.416C482.101 162.145 482.759 162.412 483.243 162.887C483.728 163.362 484 164.006 484 164.678V187.467C484 188.866 482.843 190 481.416 190H444.584C443.157 190 442 188.866 442 187.467V164.678Z" fill="white" stroke="black" stroke-width="1.14072" stroke-miterlimit="10" stroke-linejoin="round"/>
<path fill-rule="evenodd" clip-rule="evenodd" d="M456.855 159.537L462.309 156L467.738 159.537V165.196H456.829L456.855 159.537Z" fill="white" stroke="black" stroke-width="1.14072" stroke-miterlimit="10" stroke-linejoin="round"/>
<path fill-rule="evenodd" clip-rule="evenodd" d="M459.902 171.228C461.188 170.609 462.693 170.401 464.199 170.736C467.692 171.515 469.881 174.922 469.086 178.346C469.008 178.685 468.664 178.897 468.318 178.82C467.973 178.743 467.756 178.406 467.835 178.067C468.472 175.321 466.717 172.587 463.914 171.963C462.705 171.693 461.5 171.86 460.468 172.357C460.15 172.51 459.766 172.382 459.609 172.07C459.453 171.758 459.584 171.381 459.902 171.228ZM458.493 172.969C458.775 173.179 458.83 173.574 458.615 173.85C458.18 174.412 457.856 175.071 457.686 175.806C457.463 176.766 457.235 177.556 456.992 178.238C456.875 178.566 456.508 178.738 456.174 178.624C455.84 178.509 455.663 178.15 455.78 177.822C456.004 177.195 456.22 176.452 456.434 175.527C456.646 174.614 457.049 173.79 457.594 173.089C457.808 172.812 458.211 172.759 458.493 172.969ZM458.715 176.035C459.223 173.845 461.446 172.473 463.68 172.971C465.019 173.269 466.057 174.171 466.566 175.315C466.707 175.633 466.558 176.004 466.234 176.143C465.909 176.281 465.531 176.136 465.389 175.817C465.037 175.025 464.319 174.403 463.396 174.198C461.852 173.854 460.317 174.801 459.966 176.314C459.817 176.956 459.663 177.538 459.501 178.074C459.4 178.407 459.043 178.597 458.704 178.498C458.364 178.399 458.17 178.049 458.271 177.716C458.424 177.211 458.571 176.655 458.715 176.035ZM461.75 175.463C462.149 175.201 462.655 175.093 463.162 175.206C464.137 175.423 464.748 176.374 464.526 177.33C464.345 178.112 464.151 178.838 463.94 179.522C463.838 179.854 463.48 180.042 463.141 179.942C462.801 179.841 462.61 179.49 462.712 179.157C462.913 178.507 463.099 177.809 463.275 177.051C463.339 176.773 463.161 176.496 462.877 176.432C462.73 176.399 462.583 176.43 462.466 176.507C462.172 176.701 461.773 176.624 461.576 176.336C461.378 176.048 461.456 175.657 461.75 175.463ZM466.323 177.085C466.668 177.162 466.885 177.499 466.806 177.838C466.319 179.939 465.738 181.718 464.943 183.38C464.793 183.694 464.411 183.83 464.09 183.682C463.769 183.535 463.631 183.161 463.781 182.846C464.527 181.286 465.082 179.598 465.555 177.559C465.633 177.221 465.977 177.008 466.323 177.085ZM461.389 177.65C461.73 177.745 461.928 178.092 461.831 178.427C461.377 179.998 460.851 181.264 460.18 182.447C460.132 182.533 460.082 182.619 460.032 182.704C459.854 183.005 459.462 183.108 459.155 182.934C458.848 182.76 458.743 182.375 458.921 182.074C458.967 181.995 459.013 181.916 459.059 181.836C459.674 180.749 460.166 179.575 460.596 178.084C460.693 177.75 461.048 177.555 461.389 177.65ZM458.405 179.325C458.73 179.465 458.877 179.836 458.734 180.154C458.547 180.571 458.349 180.96 458.136 181.334C457.964 181.638 457.574 181.747 457.264 181.578C456.954 181.41 456.842 181.027 457.014 180.723C457.208 180.382 457.389 180.027 457.559 179.647C457.702 179.329 458.081 179.185 458.405 179.325ZM468.125 179.573C468.466 179.668 468.663 180.016 468.566 180.35C468.351 181.091 468.116 181.802 467.854 182.493C467.73 182.819 467.361 182.985 467.029 182.864C466.697 182.743 466.527 182.381 466.651 182.056C466.9 181.398 467.125 180.718 467.332 180.006C467.429 179.672 467.784 179.478 468.125 179.573ZM462.811 180.856C463.138 180.99 463.292 181.359 463.155 181.679C462.92 182.228 462.665 182.755 462.386 183.268C462.333 183.366 462.279 183.463 462.225 183.56C462.052 183.863 461.662 183.973 461.352 183.804C461.042 183.635 460.931 183.253 461.103 182.949C461.154 182.859 461.204 182.768 461.254 182.677C461.514 182.198 461.752 181.707 461.971 181.193C462.108 180.873 462.484 180.722 462.811 180.856Z" fill="#000001"/>
<circle cx="295.5" cy="345.5" r="91.5" fill="white"/>
<circle cx="295.5" cy="345.5" r="91" stroke="#9C6D03" stroke-opacity="0.3"/>
<circle cx="295.5" cy="345.5" r="107.5" stroke="white" stroke-width="2"/>
<path d="M242.167 319.167L265.914 365.391L289.833 319.167H242.167ZM262.221 337.516H258.438V333.733H262.221V337.516ZM262.221 331.839H258.438V328.06H262.221V331.839ZM267.894 343.189H264.111V339.406H267.894V343.189ZM267.894 337.516H264.111V333.733H267.894V337.516ZM267.894 331.839H264.111V328.06H267.894V331.839ZM273.537 337.516H269.753V333.733H273.537V337.516ZM269.753 331.839V328.06H273.537V331.839H269.753Z" fill="#000001"/>
<path fill-rule="evenodd" clip-rule="evenodd" d="M333.07 319.729C324.854 317.861 316.669 320.768 311.415 326.614C310.815 327.282 310.87 328.309 311.538 328.909C312.205 329.509 313.233 329.454 313.832 328.787C318.33 323.781 325.329 321.301 332.349 322.898C336.374 323.813 339.808 325.93 342.365 328.785C342.963 329.453 343.991 329.51 344.659 328.911C345.328 328.312 345.384 327.285 344.786 326.616C341.794 323.276 337.772 320.798 333.07 319.729ZM311.263 332.424C311.691 331.636 311.399 330.649 310.611 330.221C309.822 329.792 308.835 330.084 308.407 330.873C307.448 332.639 306.713 334.562 306.246 336.614C305.236 341.056 304.302 343.276 303.371 344.952C302.935 345.737 303.218 346.726 304.003 347.162C304.787 347.597 305.777 347.315 306.212 346.53C307.33 344.517 308.357 341.99 309.416 337.334C309.815 335.576 310.444 333.931 311.263 332.424ZM347.788 330.872C347.359 330.083 346.372 329.792 345.584 330.222C344.796 330.651 344.505 331.638 344.934 332.426C347.086 336.379 347.862 341.098 346.786 345.832C345.952 349.501 344.991 352.9 343.808 356.144C343.501 356.988 343.935 357.92 344.778 358.228C345.622 358.535 346.554 358.101 346.862 357.258C348.101 353.858 349.098 350.324 349.955 346.552C351.214 341.018 350.304 335.493 347.788 330.872ZM330.475 331.272C324.816 329.986 319.185 333.53 317.898 339.189C317.402 341.371 316.835 343.499 316.123 345.559C315.829 346.407 316.279 347.332 317.127 347.626C317.975 347.919 318.901 347.47 319.194 346.621C319.957 344.415 320.555 342.165 321.068 339.91C321.956 336.001 325.846 333.553 329.755 334.442C332.272 335.014 334.185 336.83 334.99 339.101C335.29 339.947 336.219 340.39 337.065 340.09C337.911 339.79 338.353 338.861 338.053 338.015C336.891 334.738 334.123 332.102 330.475 331.272ZM338.392 343.849C338.591 342.974 338.043 342.103 337.168 341.904C336.293 341.705 335.422 342.253 335.223 343.128C333.71 349.782 331.862 355.002 329.124 359.931C328.293 361.428 327.394 362.871 326.425 364.293C325.919 365.035 326.111 366.045 326.852 366.551C327.594 367.056 328.605 366.865 329.11 366.123C330.129 364.628 331.081 363.101 331.965 361.51C334.891 356.243 336.831 350.716 338.392 343.849ZM316.434 352.882C316.87 352.098 316.587 351.109 315.802 350.673C315.018 350.237 314.029 350.52 313.593 351.304C312.535 353.208 311.248 355.102 309.533 357.299C308.98 358.006 309.106 359.027 309.813 359.58C310.521 360.132 311.542 360.006 312.094 359.299C313.883 357.009 315.273 354.972 316.434 352.882ZM327.782 326.625C327.901 327.514 327.277 328.332 326.388 328.452C321.09 329.165 316.546 333.083 315.293 338.597C314.085 343.908 312.818 347.195 311.257 350.007C310.557 351.266 309.744 352.531 308.732 353.924C308.205 354.65 307.189 354.811 306.462 354.284C305.736 353.756 305.575 352.74 306.103 352.014C307.049 350.71 307.789 349.556 308.415 348.429C309.79 345.954 310.964 342.975 312.124 337.876C313.688 330.997 319.356 326.12 325.954 325.231C326.844 325.111 327.662 325.735 327.782 326.625ZM329.843 326.722C330.042 325.847 330.913 325.298 331.788 325.497C340.637 327.509 346.179 336.314 344.167 345.162C343.717 347.14 343.233 349.032 342.7 350.858C342.449 351.719 341.547 352.214 340.685 351.962C339.824 351.711 339.329 350.809 339.58 349.947C340.092 348.193 340.56 346.365 340.998 344.441C342.612 337.343 338.166 330.281 331.068 328.667C330.192 328.468 329.644 327.597 329.843 326.722ZM339.728 354.811C340.564 355.138 340.976 356.08 340.65 356.916C339.644 359.49 338.491 361.957 337.142 364.385C336.707 365.17 335.717 365.452 334.933 365.017C334.148 364.581 333.866 363.592 334.301 362.807C335.577 360.511 336.668 358.176 337.623 355.733C337.949 354.897 338.892 354.484 339.728 354.811ZM329.162 337.047C327.656 336.705 326.155 337.148 325.089 338.099C324.42 338.697 324.361 339.724 324.959 340.394C325.557 341.063 326.584 341.122 327.254 340.524C327.569 340.243 328.005 340.117 328.442 340.216C329.161 340.38 329.612 341.096 329.448 341.815C328.482 346.065 327.4 349.57 326.059 352.729C325.708 353.555 326.094 354.509 326.92 354.859C327.746 355.21 328.7 354.825 329.05 353.999C330.485 350.619 331.62 346.92 332.617 342.536C333.179 340.066 331.632 337.609 329.162 337.047ZM325.92 344.912C326.159 344.047 325.651 343.152 324.785 342.914C323.92 342.675 323.025 343.183 322.787 344.048C321.666 348.112 320.388 351.267 318.77 354.18C317.551 356.374 316.103 358.498 314.294 360.823C313.743 361.532 313.871 362.553 314.579 363.104C315.288 363.655 316.309 363.527 316.86 362.819C318.742 360.399 320.291 358.135 321.611 355.758C323.372 352.587 324.741 349.186 325.92 344.912ZM326.788 358.634C327.224 357.849 326.941 356.86 326.157 356.424C325.372 355.988 324.383 356.271 323.947 357.056C322.776 359.164 321.439 361.179 319.893 363.248C319.356 363.967 319.503 364.985 320.222 365.523C320.941 366.06 321.959 365.913 322.496 365.194C324.112 363.033 325.533 360.894 326.788 358.634Z" fill="#000001"/>
</g>
<rect x="0.5" y="0.5" width="590" height="393" rx="7.5" stroke="black" stroke-opacity="0.04"/>
<defs>
<filter id="filter0_f_2866_48836" x="-106.473" y="-256.278" width="1299.29" height="1073.92" filterUnits="userSpaceOnUse" color-interpolation-filters="sRGB">
<feFlood flood-opacity="0" result="BackgroundImageFix"/>
<feBlend mode="normal" in="SourceGraphic" in2="BackgroundImageFix" result="shape"/>
<feGaussianBlur stdDeviation="132.912" result="effect1_foregroundBlur_2866_48836"/>
</filter>
<linearGradient id="paint0_linear_2866_48836" x1="210.011" y1="-15.1944" x2="851.284" y2="-62.6349" gradientUnits="userSpaceOnUse">
<stop stop-color="#FFD88D"/>
<stop offset="0.58176" stop-color="#FFD88D"/>
<stop offset="1" stop-color="#EC585D"/>
</linearGradient>
<linearGradient id="paint1_linear_2866_48836" x1="126.5" y1="205" x2="126.5" y2="218" gradientUnits="userSpaceOnUse">
<stop stop-color="#FFF6CF"/>
<stop offset="1" stop-color="#FFF6CF" stop-opacity="0"/>
</linearGradient>
<linearGradient id="paint2_linear_2866_48836" x1="238.5" y1="205" x2="238.5" y2="218" gradientUnits="userSpaceOnUse">
<stop stop-color="#FFEDBC"/>
<stop offset="1" stop-color="#FFF6CF" stop-opacity="0"/>
</linearGradient>
<linearGradient id="paint3_linear_2866_48836" x1="351.5" y1="205" x2="351.5" y2="218" gradientUnits="userSpaceOnUse">
<stop stop-color="#FFE6AB"/>
<stop offset="1" stop-color="#FFE6AB" stop-opacity="0"/>
</linearGradient>
<linearGradient id="paint4_linear_2866_48836" x1="462.5" y1="205" x2="462.5" y2="218" gradientUnits="userSpaceOnUse">
<stop stop-color="#FEDFA1"/>
<stop offset="1" stop-color="#FFDFA1" stop-opacity="0"/>
</linearGradient>
<linearGradient id="paint5_linear_2866_48836" x1="126.999" y1="216" x2="207" y2="136.001" gradientUnits="userSpaceOnUse">
<stop stop-color="#0E0F12"/>
<stop offset="1" stop-color="#373942"/>
</linearGradient>
<linearGradient id="paint6_linear_2866_48836" x1="238.999" y1="216" x2="319" y2="136.001" gradientUnits="userSpaceOnUse">
<stop stop-color="#0E0F12"/>
<stop offset="1" stop-color="#373942"/>
</linearGradient>
<linearGradient id="paint7_linear_2866_48836" x1="350.999" y1="216" x2="431" y2="136.001" gradientUnits="userSpaceOnUse">
<stop stop-color="#0E0F12"/>
<stop offset="1" stop-color="#373942"/>
</linearGradient>
<linearGradient id="paint8_linear_2866_48836" x1="462.999" y1="216" x2="543" y2="136.001" gradientUnits="userSpaceOnUse">
<stop stop-color="#0E0F12"/>
<stop offset="1" stop-color="#373942"/>
</linearGradient>
<clipPath id="clip0_2866_48836">
<rect width="591" height="394" rx="8" fill="white"/>
</clipPath>
</defs>
</svg>
